<svg id="SvgjsSvg1019" width="288" height="288" xmlns="http://www.w3.org/2000/svg" version="1.1" xmlns:xlink="http://www.w3.org/1999/xlink" xmlns:svgjs="http://svgjs.com/svgjs"><defs id="SvgjsDefs1020"></defs><g id="SvgjsG1021" transform="matrix(1,0,0,1,0,0)"><svg xmlns="http://www.w3.org/2000/svg" id="Layer_1" x="0" y="0" version="1.1" viewBox="0 0 29 29" xml:space="preserve" width="288" height="288"><path d="M19.282 17.038c-4.15-.513-7.691-3.379-9.245-7.261a11.042 11.042 0 0 1-.748-5.355.5.5 0 0 0-.772-.468C5.09 6.156 2.905 10.121 3.261 14.573c.442 5.524 4.959 10.056 10.482 10.513 5.646.468 10.522-3.148 12.01-8.213.118-.402-.274-.774-.661-.614a11.43 11.43 0 0 1-5.81.779z" fill="#f58e09" class="color000 svgShape"></path></svg></g></svg>