<svg width="8" height="10" viewBox="0 0 8 10" fill="none" xmlns="http://www.w3.org/2000/svg">
<path fill-rule="evenodd" clip-rule="evenodd" d="M4 0C3.44772 0 3 0.447715 3 1V6.58134L1.71931 5.30479C1.46824 5.04528 1.09643 4.9412 0.746804 5.03256C0.397175 5.12392 0.124131 5.39649 0.0326158 5.74552C-0.0588995 6.09454 0.0453563 6.4657 0.305312 6.71635L3.3053 9.70772C3.6958 10.0974 4.3288 10.0974 4.7193 9.70772L7.71929 6.71635C8.09826 6.32464 8.09284 5.70201 7.70711 5.31695C7.32137 4.93188 6.69767 4.92647 6.30529 5.30479L5 6.60587V1C5 0.447715 4.55228 0 4 0Z" fill="#4B6C89"/>
</svg>
